<svg width="200" height="200" viewBox="0 0 200 200" fill="none" xmlns="http://www.w3.org/2000/svg">
<path d="M175.64 28.8C174.387 27.0628 172.864 25.537 171.13 24.28C167.444 21.4918 162.952 19.9758 158.33 19.96H41.59C36.79 19.96 32.34 21.6 28.73 24.28C26.0188 26.2876 23.814 28.9008 22.2914 31.9113C20.7688 34.9218 19.9705 38.2463 19.96 41.62V158.34C19.96 163.14 21.59 167.58 24.28 171.14C25.53 172.83 27.03 174.4 28.79 175.64C32.41 178.34 36.79 179.97 41.59 179.97H158.33C163.13 179.97 167.58 178.33 171.13 175.64C172.83 174.4 174.39 172.89 175.64 171.14C178.33 167.52 179.96 163.14 179.96 158.34V41.62C179.96 36.79 178.26 32.38 175.64 28.79V28.8ZM54.87 121.57C54.97 127.36 50.97 127.36 50.97 127.36H45.3L39.35 119.49H45.59V76.15H54.97C54.97 90.35 54.94 107.37 54.87 121.58V121.57ZM77.24 92.93C79.8 87.27 82.68 81.7 85.4 76.13H94.78C92.48 80.71 89.91 85.19 88.28 89.54L99.61 88.9C97.43 93.25 95.51 97.12 93.59 101L92.82 102.56C90.81 106.59 90.81 106.63 95.29 106.72C95.77 106.72 96.22 106.79 97.08 106.88C95.83 109.34 94.71 111.58 93.53 113.79C93.33 114.14 92.79 114.56 92.44 114.56H90.7C87.9706 114.625 85.2397 114.539 82.52 114.3C80.15 114.05 79.22 112.22 80.15 109.98C81.27 107.2 82.62 104.48 83.86 101.73C84.28 100.77 84.73 99.84 85.34 98.43L83.55 98.44C82.55 98.44 81.69 98.46 80.82 98.44C76.95 98.27 75.64 96.52 77.24 92.94V92.93ZM171.48 120.61C171.48 127.39 164.86 127.2 164.86 127.2H156.22L152.6 119.42L161.98 119.45C161.98 119.45 162.08 112.42 161.98 109.98C161.91 107.94 160.79 106.63 158.71 106.59C155.704 106.536 152.697 106.522 149.69 106.55L145.79 106.56V127.23H136.5V106.7H127.13V97.13H136.25V89.03H130.2V79.98H136.34V76.15H145.72L145.78 79.98H153.24C153.24 79.98 160.12 79.82 160.15 86.51C160.18 88.49 160.22 94.99 160.22 97.17C168.12 97.13 171.48 98.73 171.48 104.24V120.62V120.61ZM167.51 89.28H162.52V84.52C162.516 83.6695 162.728 82.8319 163.138 82.0865C163.547 81.3411 164.14 80.7124 164.86 80.26C166.52 79.21 168.82 78.53 171 80.61C171.1 80.68 171.16 80.77 171.22 80.87C174.23 84.04 171.86 89.28 167.52 89.28H167.51ZM127 127.4H93.37L97.91 118.42H107.51V89H101.53V79.81H123.19V88.87H117.27V118.43H127V127.39V127.4ZM152.05 97.14H145.85L145.78 89.02H152.05V97.14ZM68.5 122.31C64.02 118.38 61.6 106.64 61.66 89.2H70.9C70.2 98.38 73.18 110.63 73.18 110.63C73.18 110.63 70.46 116.65 68.5 122.31ZM31.86 122.82C29.88 119.37 28.09 116.17 26.26 112.97C26.26 112.92 26.33 112.67 26.45 112.25C27.16 109.57 29.74 99.95 29.05 89.26H38.9C38.9 89.26 39.26 112.46 31.86 122.82ZM88.79 126.37C88.54 126.85 87.74 127.3 87.16 127.33C83.92 127.38 80.66 127.38 77.16 127.37H73.43C75.32 123.59 76.89 120.52 78.26 117.83H93.21C91.54 121.1 90.23 123.78 88.79 126.37Z" fill="#4C556A"/>
</svg>
