<svg width="200" height="200" viewBox="0 0 200 200" fill="none" xmlns="http://www.w3.org/2000/svg">
<path d="M32.0471 0C30.412 0.000985408 28.8132 0.481231 27.4482 1.38134C26.0832 2.28144 25.0121 3.56192 24.3672 5.0644C23.0928 8.13802 24.0007 10.2871 26.8161 14.3186L84.4486 83.9541L75.9274 93.1666C74.4246 94.7756 73.5908 96.8964 73.5954 99.0981C73.6 101.3 74.4428 103.417 75.9524 105.02L86.1978 115.956L40.8848 169.632C38.5525 172.131 37.1115 176.488 38.4109 179.62C39.0606 181.199 40.1691 182.547 41.5931 183.49C43.0171 184.433 44.6912 184.927 46.399 184.909C47.5039 184.882 48.5898 184.615 49.5809 184.126C50.5721 183.637 51.4447 182.938 52.1381 182.077L100.308 131.05L162.697 197.728C163.426 198.489 164.316 199.078 165.302 199.453C166.287 199.828 167.344 199.978 168.394 199.894C169.984 199.865 171.528 199.362 172.83 198.449C174.131 197.536 175.131 196.256 175.699 194.771C177.016 191.631 175.558 188.524 173.151 185.275L114.41 115.782L123.273 106.369C124.676 104.892 125.465 102.936 125.479 100.899C125.493 98.8614 124.731 96.8951 123.348 95.399L38.6358 3.87327C38.6358 3.87327 35.5289 0.0832961 32.2553 0H32.0471ZM32.0471 2.26565H32.1887C34.0045 2.3073 36.2452 4.53131 36.8866 5.29763L36.9282 5.34761L36.9699 5.38925L121.682 96.9316C122.673 98.0082 123.218 99.4214 123.205 100.885C123.193 102.348 122.625 103.752 121.615 104.811L112.736 114.249L100.258 99.4888L28.6236 12.9442C25.8915 9.01263 25.6916 7.78818 26.4579 5.93901C26.9298 4.84899 27.7105 3.92103 28.7038 3.26971C29.697 2.61839 30.8593 2.27223 32.0471 2.27398V2.26565ZM151.502 15.3431C150.503 15.2876 149.503 15.4379 148.565 15.7846C147.626 16.1313 146.769 16.6672 146.046 17.3589L98.6006 68.6526L112.711 83.9125L156.933 29.6534C159.64 26.0467 160.923 24.1559 159.64 21.0822C158.964 19.4546 157.841 18.0517 156.401 17.036C154.961 16.0204 153.262 15.4334 151.502 15.3431ZM87.7388 117.647L98.7172 129.425L50.5221 180.486C50.0385 181.132 49.4164 181.662 48.7016 182.037C47.9868 182.411 47.1972 182.621 46.3907 182.652C45.1332 182.668 43.8999 182.306 42.851 181.613C41.8022 180.919 40.9864 179.925 40.51 178.762C39.577 176.521 40.8098 173.039 42.5424 171.19L42.584 171.148L42.6257 171.098L87.7388 117.647Z" fill="white"/>
</svg>
