<svg width="71" height="69" viewBox="0 0 71 69" fill="none" xmlns="http://www.w3.org/2000/svg">
<g clip-path="url(#clip0_171_13)">
<g filter="url(#filter0_d_171_13)">
<path d="M11.0948 37.6121C11.0948 44.0973 13.6662 50.3168 18.2433 54.9025C22.8203 59.4882 29.0282 62.0644 35.5011 62.0644C41.974 62.0644 48.1819 59.4882 52.7589 54.9025C57.336 50.3168 59.9073 44.0973 59.9073 37.6121C59.9073 31.127 57.336 24.9074 52.7589 20.3217C48.1819 15.736 41.974 13.1598 35.5011 13.1598C29.0282 13.1598 22.8203 15.736 18.2433 20.3217C13.6662 24.9074 11.0948 31.127 11.0948 37.6121Z" fill="#EDF5F8"/>
</g>
<g filter="url(#filter1_d_171_13)">
<path d="M19.9698 15.5606C19.9698 17.604 20.3716 19.6274 21.1521 21.5153C21.9326 23.4032 23.0766 25.1186 24.5188 26.5635C25.9611 28.0085 27.6732 29.1547 29.5575 29.9367C31.4419 30.7186 33.4615 31.1211 35.5011 31.1211C37.5407 31.1211 39.5603 30.7186 41.4446 29.9367C43.329 29.1547 45.0411 28.0085 46.4833 26.5635C47.9256 25.1186 49.0696 23.4032 49.8501 21.5153C50.6306 19.6274 51.0323 17.604 51.0323 15.5606C51.0323 13.5171 50.6306 11.4937 49.8501 9.6058C49.0696 7.7179 47.9256 6.00252 46.4833 4.55758C45.0411 3.11265 43.329 1.96647 41.4446 1.18448C39.5603 0.402486 37.5407 0 35.5011 0C33.4615 0 31.4419 0.402486 29.5575 1.18448C27.6732 1.96647 25.9611 3.11265 24.5188 4.55758C23.0766 6.00252 21.9326 7.7179 21.1521 9.6058C20.3716 11.4937 19.9698 13.5171 19.9698 15.5606Z" fill="#EDF5F8"/>
</g>
<path d="M68.7823 18.5838H64.3448V14.1379C64.3448 13.5483 64.1111 12.9829 63.695 12.566C63.2789 12.1491 62.7145 11.9149 62.1261 11.9149C61.5376 11.9149 60.9733 12.1491 60.5572 12.566C60.1411 12.9829 59.9073 13.5483 59.9073 14.1379V19.8864L52.2782 27.53C53.3551 28.555 54.3365 29.6763 55.2103 30.8799L63.0447 23.0307H68.7823C69.3709 23.0307 69.9354 22.7965 70.3516 22.3795C70.7678 21.9625 71.0017 21.397 71.0017 20.8073C71.0017 20.2175 70.7678 19.652 70.3516 19.235C69.9354 18.818 69.3709 18.5838 68.7823 18.5838ZM11.0948 14.1379C11.0948 13.5483 10.8611 12.9829 10.445 12.566C10.0289 12.1491 9.46455 11.9149 8.8761 11.9149C8.28765 11.9149 7.7233 12.1491 7.30721 12.566C6.89111 12.9829 6.65735 13.5483 6.65735 14.1379V18.5838H2.21985C1.6314 18.5838 1.06705 18.818 0.650955 19.2348C0.234859 19.6517 0.00109863 20.2171 0.00109863 20.8067C0.00109863 21.3963 0.234859 21.9617 0.650955 22.3786C1.06705 22.7954 1.6314 23.0296 2.21985 23.0296H7.95754L15.7919 30.8788C16.6657 29.6752 17.6471 28.5539 18.724 27.5289L11.0948 19.8864V14.1379Z" fill="url(#paint0_linear_171_13)"/>
<path opacity="0.1" d="M33.2823 39.8351C33.2823 40.4246 33.5161 40.99 33.9322 41.4069C34.3483 41.8238 34.9126 42.058 35.5011 42.058C36.0895 42.058 36.6539 41.8238 37.07 41.4069C37.4861 40.99 37.7198 40.4246 37.7198 39.8351C37.7198 39.2455 37.4861 38.6801 37.07 38.2632C36.6539 37.8463 36.0895 37.6121 35.5011 37.6121C34.9126 37.6121 34.3483 37.8463 33.9322 38.2632C33.5161 38.6801 33.2823 39.2455 33.2823 39.8351Z" fill="black"/>
<path opacity="0.1" d="M33.2823 48.7268C33.2823 49.3164 33.5161 49.8818 33.9322 50.2987C34.3483 50.7155 34.9126 50.9497 35.5011 50.9497C36.0895 50.9497 36.6539 50.7155 37.07 50.2987C37.4861 49.8818 37.7198 49.3164 37.7198 48.7268C37.7198 48.1372 37.4861 47.5718 37.07 47.1549C36.6539 46.7381 36.0895 46.5039 35.5011 46.5039C34.9126 46.5039 34.3483 46.7381 33.9322 47.1549C33.5161 47.5718 33.2823 48.1372 33.2823 48.7268Z" fill="black"/>
<path d="M38.0748 12.1817C38.0748 12.7713 38.3086 13.3367 38.7247 13.7536C39.1408 14.1704 39.7051 14.4046 40.2936 14.4046C40.882 14.4046 41.4464 14.1704 41.8625 13.7536C42.2786 13.3367 42.5123 12.7713 42.5123 12.1817C42.5123 11.5921 42.2786 11.0267 41.8625 10.6098C41.4464 10.193 40.882 9.95876 40.2936 9.95876C39.7051 9.95876 39.1408 10.193 38.7247 10.6098C38.3086 11.0267 38.0748 11.5921 38.0748 12.1817Z" fill="#434854"/>
<path d="M28.4899 12.1817C28.4899 12.7713 28.7236 13.3367 29.1397 13.7536C29.5558 14.1704 30.1202 14.4046 30.7086 14.4046C31.2971 14.4046 31.8614 14.1704 32.2775 13.7536C32.6936 13.3367 32.9274 12.7713 32.9274 12.1817C32.9274 11.5921 32.6936 11.0267 32.2775 10.6098C31.8614 10.193 31.2971 9.95876 30.7086 9.95876C30.1202 9.95876 29.5558 10.193 29.1397 10.6098C28.7236 11.0267 28.4899 11.5921 28.4899 12.1817Z" fill="#434854"/>
<path opacity="0.1" d="M37.0764 18.6638L33.9391 21.8071C33.733 22.0136 33.4884 22.1774 33.2192 22.2892C32.9499 22.4009 32.6613 22.4585 32.3699 22.4585C32.0784 22.4585 31.7898 22.4009 31.5206 22.2892C31.2513 22.1774 31.0067 22.0136 30.8007 21.8071C30.5229 21.5258 30.3255 21.175 30.2293 20.7912C30.1307 21.1649 30.1316 21.5579 30.2318 21.9312C30.3321 22.3045 30.5282 22.6449 30.8007 22.9185C31.0067 23.1251 31.2513 23.2889 31.5206 23.4006C31.7898 23.5124 32.0784 23.5699 32.3699 23.5699C32.6613 23.5699 32.9499 23.5124 33.2192 23.4006C33.4884 23.2889 33.733 23.1251 33.9391 22.9185L37.0764 19.7753C37.3489 19.5016 37.545 19.1612 37.6452 18.788C37.7455 18.4147 37.7463 18.0217 37.6477 17.648C37.5522 18.032 37.3548 18.383 37.0764 18.6638Z" fill="black"/>
<path d="M33.9335 21.876C33.5175 22.293 32.9532 22.5273 32.3647 22.5274C31.7762 22.5275 31.2118 22.2934 30.7957 21.8765C30.3795 21.4597 30.1456 20.8943 30.1455 20.3048C30.1454 19.7152 30.3791 19.1497 30.7951 18.7328L33.9324 15.5895C34.1384 15.3831 34.383 15.2193 34.6522 15.1075C34.9213 14.9957 35.2099 14.9382 35.5012 14.9381C35.7926 14.9381 36.0811 14.9955 36.3504 15.1072C36.6196 15.2189 36.8642 15.3826 37.0703 15.589C37.2764 15.7954 37.4398 16.0404 37.5514 16.3101C37.6629 16.5798 37.7204 16.8688 37.7204 17.1607C37.7205 17.4527 37.6631 17.7418 37.5517 18.0115C37.4402 18.2812 37.2768 18.5263 37.0708 18.7328L33.9335 21.876Z" fill="#EA1FFC"/>
<path opacity="0.05" d="M35.5011 53.1727C26.1945 53.1727 17.7921 49.337 11.7516 43.1695C14.2676 53.9907 23.9325 62.0644 35.5011 62.0644C47.0696 62.0644 56.7356 53.9907 59.2506 43.1695C53.21 49.337 44.8076 53.1727 35.5011 53.1727Z" fill="black"/>
</g>
<defs>
<filter id="filter0_d_171_13" x="-8.90515" y="-2.84021" width="88.8125" height="88.9046" filterUnits="userSpaceOnUse" color-interpolation-filters="sRGB">
<feFlood flood-opacity="0" result="BackgroundImageFix"/>
<feColorMatrix in="SourceAlpha" type="matrix" values="0 0 0 0 0 0 0 0 0 0 0 0 0 0 0 0 0 0 127 0" result="hardAlpha"/>
<feOffset dy="4"/>
<feGaussianBlur stdDeviation="10"/>
<feComposite in2="hardAlpha" operator="out"/>
<feColorMatrix type="matrix" values="0 0 0 0 0.423529 0 0 0 0 0.388235 0 0 0 0 1 0 0 0 0.25 0"/>
<feBlend mode="normal" in2="BackgroundImageFix" result="effect1_dropShadow_171_13"/>
<feBlend mode="normal" in="SourceGraphic" in2="effect1_dropShadow_171_13" result="shape"/>
</filter>
<filter id="filter1_d_171_13" x="7.96985" y="-8" width="55.0625" height="55.1211" filterUnits="userSpaceOnUse" color-interpolation-filters="sRGB">
<feFlood flood-opacity="0" result="BackgroundImageFix"/>
<feColorMatrix in="SourceAlpha" type="matrix" values="0 0 0 0 0 0 0 0 0 0 0 0 0 0 0 0 0 0 127 0" result="hardAlpha"/>
<feOffset dy="4"/>
<feGaussianBlur stdDeviation="6"/>
<feComposite in2="hardAlpha" operator="out"/>
<feColorMatrix type="matrix" values="0 0 0 0 0 0 0 0 0 0 0 0 0 0 0 0 0 0 0.1 0"/>
<feBlend mode="normal" in2="BackgroundImageFix" result="effect1_dropShadow_171_13"/>
<feBlend mode="normal" in="SourceGraphic" in2="effect1_dropShadow_171_13" result="shape"/>
</filter>
<linearGradient id="paint0_linear_171_13" x1="0.00109863" y1="21.3974" x2="71.0017" y2="21.3974" gradientUnits="userSpaceOnUse">
<stop stop-color="#8360E2"/>
<stop offset="1" stop-color="#6C63FF"/>
</linearGradient>
<clipPath id="clip0_171_13">
<rect width="71" height="69" fill="white"/>
</clipPath>
</defs>
</svg>
